<mxfile host="app.diagrams.net" modified="2023-04-22T16:44:32.643Z" agent="Mozilla/5.0 (Android 13; Mobile; rv:109.0) Gecko/111.0 Firefox/111.0" version="21.2.1" etag="jqaY4HBjUycCCiGho9rF" type="github">
  <diagram name="Page-1" id="iunEoR7DClouO0d2Jcjg">
    <mxGraphModel>
      <root>
        <mxCell id="0" />
        <mxCell id="1" parent="0" />
      </root>
    </mxGraphModel>
  </diagram>
</mxfile>
